<svg version="1.2" baseProfile="tiny-ps" xmlns="http://www.w3.org/2000/svg" viewBox="0 0 208 70" width="208" height="70">
	<title>Page 1</title>
	<style>
		tspan { white-space:pre }
		.shp0 { fill: #003366 } 
	</style>
	<g id="Page 1">
		<path id="Path 15" fill-rule="evenodd" class="shp0" d="M105 52.03L105 17.5L112.32 17.5L112.32 45.98L126.31 45.98L126.31 52.03L105 52.03ZM132.81 48.98C130.42 46.64 129.23 43.31 129.23 39.01C129.23 34.59 130.33 31.17 132.54 28.75C134.75 26.34 137.81 25.13 141.71 25.13C145.44 25.13 148.34 26.19 150.42 28.32C152.5 30.44 153.53 33.38 153.53 37.13L153.53 40.62L136.52 40.62C136.6 42.67 137.2 44.27 138.34 45.41C139.47 46.56 141.06 47.14 143.1 47.14C144.69 47.14 146.19 46.97 147.61 46.64C149.03 46.31 150.5 45.78 152.05 45.06L152.05 50.63C150.79 51.26 149.44 51.73 148.01 52.04C146.58 52.35 144.83 52.5 142.77 52.5C138.52 52.5 135.2 51.33 132.81 48.98ZM145.39 31.71C144.5 30.74 143.28 30.25 141.76 30.25C140.23 30.25 139.04 30.74 138.17 31.71C137.31 32.67 136.81 34.05 136.68 35.83L146.78 35.83C146.75 34.05 146.29 32.67 145.39 31.71ZM158.48 52.03L158.48 25.62L163.98 25.62L164.95 29L165.35 29C166.15 27.73 167.25 26.76 168.66 26.11C170.07 25.45 171.67 25.13 173.47 25.13C176.53 25.13 178.86 25.96 180.45 27.62C182.04 29.28 182.83 31.68 182.83 34.81L182.83 52.03L175.64 52.03L175.64 36.61C175.64 34.7 175.3 33.27 174.62 32.32C173.95 31.37 172.87 30.89 171.39 30.89C169.37 30.89 167.92 31.56 167.02 32.91C166.13 34.26 165.68 36.49 165.68 39.6L165.68 52.03L158.48 52.03ZM191.58 52.11C190.23 51.85 188.96 51.47 187.78 50.96L187.78 45.01C189.12 45.64 190.62 46.17 192.3 46.6C193.98 47.02 195.45 47.23 196.72 47.23C199.34 47.23 200.64 46.48 200.64 44.97C200.64 44.4 200.47 43.94 200.12 43.58C199.78 43.23 199.18 42.83 198.33 42.38C197.48 41.93 196.35 41.41 194.93 40.81C192.9 39.96 191.41 39.17 190.46 38.45C189.51 37.72 188.81 36.89 188.38 35.96C187.95 35.02 187.73 33.87 187.73 32.5C187.73 30.15 188.64 28.34 190.46 27.05C192.28 25.77 194.85 25.13 198.19 25.13C201.37 25.13 204.46 25.82 207.46 27.21L205.29 32.4C203.97 31.84 202.73 31.37 201.59 31.01C200.44 30.65 199.26 30.47 198.07 30.47C195.95 30.47 194.88 31.04 194.88 32.19C194.88 32.84 195.23 33.39 195.91 33.87C196.59 34.34 198.09 35.04 200.41 35.97C202.47 36.8 203.98 37.58 204.94 38.31C205.9 39.03 206.6 39.86 207.06 40.81C207.52 41.75 207.75 42.88 207.75 44.19C207.75 46.89 206.8 48.96 204.92 50.37C203.04 51.79 200.23 52.5 196.49 52.5C194.57 52.5 192.93 52.37 191.58 52.11ZM49.07 35C49.07 42.77 42.77 49.07 35 49.07C27.23 49.07 20.93 42.77 20.93 35C20.93 32.2 21.75 29.6 23.15 27.41C22.86 29.05 23.35 30.81 24.61 32.08C26.67 34.14 30.02 34.14 32.08 32.08C34.14 30.02 34.14 26.67 32.08 24.61C30.81 23.34 29.05 22.86 27.41 23.15C29.6 21.75 32.2 20.93 35 20.93C42.77 20.93 49.07 27.23 49.07 35ZM70 38.52C68.35 55.13 55.14 68.35 38.52 70L38.52 55.81C47.35 54.32 54.32 47.35 55.81 38.52L70 38.52ZM0 31.48C1.65 14.86 14.86 1.65 31.48 0L31.48 14.19C22.65 15.68 15.67 22.65 14.19 31.48L0 31.48ZM38.52 0C55.13 1.65 68.35 14.86 70 31.48L55.81 31.48C54.32 22.65 47.35 15.68 38.52 14.19L38.52 0ZM31.48 70C14.86 68.35 1.65 55.13 0 38.52L14.19 38.52C15.68 47.35 22.65 54.32 31.48 55.81L31.48 70Z" />
	</g>
</svg>