<svg width="90" height="30" xmlns="http://www.w3.org/2000/svg">
    <g fill="#FFF" fill-rule="evenodd">
        <path d="M54.14 22.298v-2.592h-6.002V7.5H45v14.798h9.14zm7.06.202c.884 0 1.633-.066 2.247-.197a7.249 7.249 0 0 0 1.731-.603v-2.388a9.673 9.673 0 0 1-1.903.678 8.488 8.488 0 0 1-1.933.212c-.877 0-1.559-.246-2.044-.738-.486-.493-.746-1.178-.78-2.055h7.298V15.91c0-1.606-.446-2.864-1.336-3.775-.89-.911-2.136-1.367-3.735-1.367-1.673 0-2.984.518-3.932 1.554s-1.422 2.502-1.422 4.398c0 1.842.513 3.266 1.538 4.27 1.026 1.006 2.45 1.509 4.271 1.509zm1.721-7.146H58.59c.054-.762.267-1.351.638-1.766.37-.415.884-.622 1.538-.622.655 0 1.174.207 1.559.622.385.415.584 1.004.597 1.766zm8.103 6.944v-5.324c0-1.336.193-2.293.577-2.87.385-.577 1.009-.865 1.873-.865.634 0 1.096.204 1.386.612.29.408.436 1.02.436 1.837v6.61h3.087v-7.379c0-1.343-.341-2.37-1.023-3.082-.681-.712-1.68-1.068-2.996-1.068-.769 0-1.455.14-2.06.42a3.262 3.262 0 0 0-1.421 1.24h-.172l-.415-1.447h-2.359v11.316h3.087zm13.215.202c1.606 0 2.812-.304 3.618-.91.807-.608 1.21-1.492 1.21-2.653 0-.56-.098-1.042-.294-1.447-.195-.405-.499-.763-.91-1.073-.412-.31-1.06-.644-1.944-1.002-.992-.398-1.635-.698-1.928-.9-.294-.203-.44-.443-.44-.72 0-.492.455-.738 1.366-.738a4.99 4.99 0 0 1 1.508.232 17.13 17.13 0 0 1 1.59.598l.93-2.227a9.409 9.409 0 0 0-3.977-.89c-1.43 0-2.536.274-3.315.824-.78.55-1.17 1.328-1.17 2.333 0 .587.094 1.081.28 1.483.185.401.482.757.89 1.068.408.31 1.047.648 1.918 1.012.607.256 1.093.48 1.457.673.365.192.621.364.77.516.148.152.222.35.222.592 0 .648-.56.972-1.68.972-.546 0-1.18-.091-1.898-.273a10.761 10.761 0 0 1-1.938-.679v2.551c.506.216 1.05.38 1.63.491.58.111 1.282.167 2.105.167z" fill-rule="nonzero"/>
        <path d="M15 8.97a6 6 0 0 0-3.252.953 2.261 2.261 0 1 1-1.824 1.824A6.03 6.03 0 1 0 15 8.97M23.918 16.507a9.05 9.05 0 0 1-7.41 7.41V30C23.63 29.293 29.293 23.63 30 16.507h-6.082zM6.082 13.492a9.05 9.05 0 0 1 7.41-7.41V0C6.37.707.707 6.37 0 13.492h6.082zM16.508 6.082a9.05 9.05 0 0 1 7.41 7.41H30C29.293 6.37 23.63.707 16.508 0v6.082zM13.492 23.917a9.05 9.05 0 0 1-7.41-7.41H0C.707 23.63 6.37 29.293 13.492 30v-6.083z"/>
    </g>
</svg>
