<svg width="35" height="35" viewBox="0 0 35 35" xmlns="http://www.w3.org/2000/svg">
    <g fill="none" fill-rule="evenodd">
        <g fill="#829AB1">
            <path d="M17.5 31.938a2.925 2.925 0 0 0 2.917-2.917h-5.834a2.916 2.916 0 0 0 2.917 2.916zM26.25 23.188v-7.292c0-4.477-2.392-8.225-6.563-9.217v-.992c0-1.21-.977-2.187-2.187-2.187s-2.188.977-2.188 2.188v.991c-4.185.992-6.562 4.725-6.562 9.217v7.291l-2.917 2.917v1.459h23.334v-1.459l-2.917-2.916z"/>
        </g>
        <path d="M0 0h35v35H0z"/>
        <circle fill="#FF5622" cx="24.573" cy="8.24" r="4.74"/>
    </g>
</svg>
