<svg width="35" height="35" viewBox="0 0 35 35" xmlns="http://www.w3.org/2000/svg">
    <g fill="none" fill-rule="evenodd">
        <path d="M0 0h35v35H0z"/>
        <g fill="#829AB1" fill-rule="nonzero">
            <path d="M30.188 10.135a3.646 3.646 0 0 0-3.646-3.645h-.912v-.886c0-.49-.377-.912-.867-.936a.911.911 0 0 0-.956.91v.912h-12.76v-.886c0-.49-.377-.912-.868-.936a.911.911 0 0 0-.955.91v.912h-.911a3.646 3.646 0 0 0-3.646 3.645v.684c0 .126.102.228.228.228H29.96a.228.228 0 0 0 .228-.228v-.684zM4.667 26.542a3.646 3.646 0 0 0 3.646 3.645h18.229a3.646 3.646 0 0 0 3.646-3.645V13.04a.17.17 0 0 0-.171-.171H4.837a.17.17 0 0 0-.17.17v13.502zm19.596-11.85a1.367 1.367 0 1 1 0 2.735 1.367 1.367 0 0 1 0-2.734zm0 4.558a1.367 1.367 0 1 1 0 2.734 1.367 1.367 0 0 1 0-2.734zm-4.557-4.557a1.367 1.367 0 1 1 0 2.734 1.367 1.367 0 0 1 0-2.734zm0 4.557a1.367 1.367 0 1 1 0 2.734 1.367 1.367 0 0 1 0-2.734zm0 4.557a1.367 1.367 0 1 1 0 2.735 1.367 1.367 0 0 1 0-2.735zm-4.558-4.557a1.367 1.367 0 1 1 0 2.734 1.367 1.367 0 0 1 0-2.734zm0 4.557a1.367 1.367 0 1 1 0 2.735 1.367 1.367 0 0 1 0-2.735zm-4.557-4.557a1.367 1.367 0 1 1 0 2.734 1.367 1.367 0 0 1 0-2.734zm0 4.557a1.367 1.367 0 1 1 0 2.735 1.367 1.367 0 0 1 0-2.735z"/>
        </g>
    </g>
</svg>
